<?xml version="1.0" encoding="iso-8859-1"?>
<!-- Generator: Adobe Illustrator 19.0.0, SVG Export Plug-In . SVG Version: 6.00 Build 0)  -->
<svg version="1.1" id="Capa_1" xmlns="http://www.w3.org/2000/svg" xmlns:xlink="http://www.w3.org/1999/xlink" x="0px" y="0px"
	 viewBox="0 0 426.667 426.667" style="enable-background:new 0 0 426.667 426.667;" xml:space="preserve">
<rect x="136.021" y="213.658" style="fill:#D5D6DB;" width="257.963" height="187.686"/>
<g>
	<rect x="103.339" y="401.395" style="fill:#64798A;" width="323.328" height="20.855"/>
	<polygon style="fill:#64798A;" points="104.791,213.677 425.04,213.677 386.392,116.397 143.439,116.397 	"/>
</g>
<rect x="313.289" y="229.773" style="fill:#2D93BA;" width="56.589" height="49.054"/>
<polygon style="fill:#27A2DB;" points="369.862,278.813 369.862,229.76 313.271,229.76 "/>
<rect x="236.617" y="229.773" style="fill:#2D93BA;" width="56.589" height="49.054"/>
<polygon style="fill:#27A2DB;" points="293.211,278.813 293.211,229.76 236.621,229.76 "/>
<rect x="313.289" y="294.391" style="fill:#2D93BA;" width="56.589" height="49.054"/>
<polygon style="fill:#27A2DB;" points="369.862,343.434 369.862,294.381 313.271,294.381 "/>
<rect x="236.617" y="294.391" style="fill:#2D93BA;" width="56.589" height="49.054"/>
<polygon style="fill:#27A2DB;" points="293.211,343.434 293.211,294.381 236.621,294.381 "/>
<rect x="75.883" y="21.824" style="fill:#E56353;" width="203.388" height="389.845"/>
<rect x="114.163" y="334.571" style="fill:#D5D6DB;" width="125.363" height="77.099"/>
<rect x="169.391" y="330.389" style="fill:#E56353;" width="14.903" height="81.28"/>
<rect x="224.802" y="44.932" style="fill:#D5D6DB;" width="24.38" height="43.405"/>
<polygon style="fill:#EBF0F3;" points="224.801,88.335 224.801,44.931 249.179,44.931 "/>
<rect x="224.802" y="100.224" style="fill:#D5D6DB;" width="24.38" height="43.405"/>
<polygon style="fill:#EBF0F3;" points="224.801,143.629 224.801,100.226 249.179,100.226 "/>
<rect x="224.802" y="155.541" style="fill:#D5D6DB;" width="24.38" height="43.405"/>
<polygon style="fill:#EBF0F3;" points="224.801,198.924 224.801,155.521 249.179,155.521 "/>
<rect x="224.802" y="210.795" style="fill:#D5D6DB;" width="24.38" height="43.405"/>
<polygon style="fill:#EBF0F3;" points="224.801,254.219 224.801,210.815 249.179,210.815 "/>
<rect x="224.802" y="266.091" style="fill:#D5D6DB;" width="24.38" height="43.405"/>
<polygon style="fill:#EBF0F3;" points="224.801,309.513 224.801,266.11 249.179,266.11 "/>
<rect x="185.173" y="44.932" style="fill:#D5D6DB;" width="24.38" height="43.405"/>
<polygon style="fill:#EBF0F3;" points="185.191,88.335 185.191,44.931 209.569,44.931 "/>
<rect x="185.173" y="100.224" style="fill:#D5D6DB;" width="24.38" height="43.405"/>
<polygon style="fill:#EBF0F3;" points="185.191,143.629 185.191,100.226 209.569,100.226 "/>
<rect x="185.173" y="155.541" style="fill:#D5D6DB;" width="24.38" height="43.405"/>
<polygon style="fill:#EBF0F3;" points="185.191,198.924 185.191,155.521 209.569,155.521 "/>
<rect x="185.173" y="210.795" style="fill:#D5D6DB;" width="24.38" height="43.405"/>
<polygon style="fill:#EBF0F3;" points="185.191,254.219 185.191,210.815 209.569,210.815 "/>
<rect x="185.173" y="266.091" style="fill:#D5D6DB;" width="24.38" height="43.405"/>
<polygon style="fill:#EBF0F3;" points="185.191,309.513 185.191,266.11 209.569,266.11 "/>
<rect x="145.579" y="44.932" style="fill:#D5D6DB;" width="24.38" height="43.405"/>
<polygon style="fill:#EBF0F3;" points="145.581,88.335 145.581,44.931 169.959,44.931 "/>
<rect x="145.579" y="100.224" style="fill:#D5D6DB;" width="24.38" height="43.405"/>
<polygon style="fill:#EBF0F3;" points="145.581,143.629 145.581,100.226 169.959,100.226 "/>
<rect x="145.579" y="155.541" style="fill:#D5D6DB;" width="24.38" height="43.405"/>
<polygon style="fill:#EBF0F3;" points="145.581,198.924 145.581,155.521 169.959,155.521 "/>
<rect x="145.579" y="210.795" style="fill:#D5D6DB;" width="24.38" height="43.405"/>
<polygon style="fill:#EBF0F3;" points="145.581,254.219 145.581,210.815 169.959,210.815 "/>
<rect x="145.579" y="266.091" style="fill:#D5D6DB;" width="24.38" height="43.405"/>
<polygon style="fill:#EBF0F3;" points="145.581,309.513 145.581,266.11 169.959,266.11 "/>
<rect x="105.971" y="44.932" style="fill:#D5D6DB;" width="24.38" height="43.405"/>
<polygon style="fill:#EBF0F3;" points="105.971,88.335 105.971,44.931 130.35,44.931 "/>
<rect x="105.971" y="100.224" style="fill:#D5D6DB;" width="24.38" height="43.405"/>
<polygon style="fill:#EBF0F3;" points="105.971,143.629 105.971,100.226 130.35,100.226 "/>
<rect x="105.971" y="155.541" style="fill:#D5D6DB;" width="24.38" height="43.405"/>
<polygon style="fill:#EBF0F3;" points="105.971,198.924 105.971,155.521 130.35,155.521 "/>
<rect x="105.971" y="210.795" style="fill:#D5D6DB;" width="24.38" height="43.405"/>
<polygon style="fill:#EBF0F3;" points="105.971,254.219 105.971,210.815 130.35,210.815 "/>
<rect x="105.971" y="266.091" style="fill:#D5D6DB;" width="24.38" height="43.405"/>
<polygon style="fill:#EBF0F3;" points="105.971,309.513 105.971,266.11 130.35,266.11 "/>
<g>
	<rect x="35.063" y="4.416" style="fill:#E56353;" width="288.341" height="22.626"/>
	<rect x="65.536" y="411.669" style="fill:#E56353;" width="222.635" height="10.56"/>
</g>
<rect x="16.798" y="314.987" style="fill:#EBF0F3;" width="132.651" height="96.512"/>
<g>
	<rect y="411.499" style="fill:#64798A;" width="166.259" height="10.726"/>
	<polygon style="fill:#64798A;" points="165.518,314.98 0.836,314.98 20.71,264.955 145.644,264.955 	"/>
</g>
<rect x="29.21" y="323.264" style="fill:#2D93BA;" width="29.099" height="25.225"/>
<polygon style="fill:#27A2DB;" points="29.211,348.475 29.211,323.25 58.311,323.25 "/>
<rect x="68.608" y="323.264" style="fill:#2D93BA;" width="29.099" height="25.225"/>
<polygon style="fill:#27A2DB;" points="68.627,348.475 68.627,323.25 97.728,323.25 "/>
<rect x="29.21" y="356.501" style="fill:#2D93BA;" width="29.099" height="25.225"/>
<polygon style="fill:#27A2DB;" points="29.211,381.705 29.211,356.48 58.311,356.48 "/>
<rect x="68.608" y="356.501" style="fill:#2D93BA;" width="29.099" height="25.225"/>
<g>
	<polygon style="fill:#27A2DB;" points="68.627,381.705 68.627,356.48 97.728,356.48 	"/>
	<rect x="112.256" y="356.501" style="fill:#27A2DB;" width="28.783" height="55.309"/>
	<rect x="36.587" y="241.472" style="fill:#27A2DB;" width="21.726" height="23.471"/>
</g>
<rect x="29.21" y="232.512" style="fill:#64798A;" width="36.326" height="11.75"/>
<g>
</g>
<g>
</g>
<g>
</g>
<g>
</g>
<g>
</g>
<g>
</g>
<g>
</g>
<g>
</g>
<g>
</g>
<g>
</g>
<g>
</g>
<g>
</g>
<g>
</g>
<g>
</g>
<g>
</g>
</svg>
