<svg xmlns="http://www.w3.org/2000/svg" xmlns:xlink="http://www.w3.org/1999/xlink" viewBox="0 0 312.06 311.97"><defs><linearGradient id="Blue" y1="155.98" x2="312.06" y2="155.98" gradientUnits="userSpaceOnUse"><stop offset="0" stop-color="#2bc4f3"/><stop offset="0.5" stop-color="#00aeee"/><stop offset="1" stop-color="#0095da"/></linearGradient></defs><title>user_default</title><g id="Layer_2" data-name="Layer 2"><g id="Layer_1-2" data-name="Layer 1"><path d="M312.06,155c.43,85.7-69.59,156.54-155.18,157S.44,242.45,0,156.73C-.44,70.71,69.13.42,155.12,0S311.63,69.18,312.06,155Zm-157,32.15c-27.91,1.26-56.84,7.07-83.62,22.1-15.84,8.89-19.53,17.36-5.86,32.89,44.32,50.38,138.47,50.06,181.5-.79,11.45-13.52,10.63-21.95-4.1-30.62C216.57,195.14,187.76,188.63,155.1,187.12Zm.5-143.59c-30.14,3.1-47.91,18.67-49,49.46-1,29.2,22.76,52.14,51.93,49.72,30.43-2.52,47.44-20.45,46.7-50.86C204.47,61,185.4,46,155.6,43.53Z" style="fill:url(#Blue)"/></g></g></svg>