<svg id="Layer_1" data-name="Layer 1" xmlns="http://www.w3.org/2000/svg" viewBox="0 0 4037.75 2024.51"><title>mpesa-seeklogo</title><path d="M1254.84,815.52h310c98.61,0,179.29,80.68,179.29,179.29v515.48c0,98.6-80.68,179.29-179.29,179.29h-310c-98.61,0-179.29-80.69-179.29-179.29V994.81c0-98.61,80.68-179.29,179.29-179.29Z" transform="translate(-106.3 -434.53)" style="fill:#fff;fill-rule:evenodd"/><path d="M1676.92,2459H1142.78c-78.06,0-141.94-63.88-141.94-142V752c0-78.07,63.88-141.94,141.94-141.94h534.14a142.25,142.25,0,0,1,18.68,1.24V496.16a61.81,61.81,0,0,1,61.63-61.63h0a61.81,61.81,0,0,1,61.63,61.63V690.39a61.1,61.1,0,0,1-5,24.3,140.72,140.72,0,0,1,5,37.33V2317.08c0,78.07-63.87,142-141.94,142ZM1254.84,815.52h310c98.61,0,179.29,80.68,179.29,179.29v515.48c0,98.6-80.68,179.29-179.29,179.29h-310c-98.61,0-179.29-80.69-179.29-179.29V994.81c0-98.61,80.68-179.29,179.29-179.29Z" transform="translate(-106.3 -434.53)" style="fill:#d2e288;fill-rule:evenodd"/><path d="M1944.41,848.34,2285.26,847c124.28,15.79,181.71,108.8,176.49,244.12-9.47,136.39-86.79,203.06-215.92,214.75l-123.74-2.47,3.48,374.16H1944.41V848.34Zm183.07,85c84.16-12.06,148.75,11.33,153.15,143.81-2.79,118.28-65.66,148.21-153.15,141.94V933.38Z" transform="translate(-106.3 -434.53)" style="fill:#8dc63f;fill-rule:evenodd"/><path d="M2778.33,838.05l215.8-1-1.61,92.62-169-.75c-97.53,18.11-75.7,122.16-80.43,197.35l227.41-4.26.78,113.69-220.32-2.34-1.06,275.3c8.64,71.38,46.2,107.28,109.64,111.44l121-1.34,36.91.81-1.16,85.94-37.8,1.45-230.05-2.46c-79.28-2.68-143.29-42-172.75-164.22l-5.64-534.12c3.24-109.5,75.55-163.2,208.27-168.12Z" transform="translate(-106.3 -434.53)" style="fill:#8dc63f;fill-rule:evenodd"/><path d="M3073.39,1072.45C3059.77,893.54,3159.48,853.13,3280.7,839c141.9-8.4,231,50.77,248.39,201.74l-167.5-.45c-10.62-76.16-69.87-105.42-124.07-69.18-77.27,94.53,163.88,260.89,236.16,322.59,125,98.84,103.81,372.79-88.67,423.58l-117.39,4.18c-119.21,2.8-190.18-72.5-210.72-212.11l168.78-3c9.19,59.61,34.63,96.68,88.64,94,84-16,107.15-90,47.38-184.35-125.13-106.25-273.27-205.92-288.31-343.62Z" transform="translate(-106.3 -434.53)" style="fill:#8dc63f;fill-rule:evenodd"/><path d="M106.3,811H283.69l1.86,55.09c107.2-46.32,188-79.05,272.71-2.8,151.41-71.5,265.9-63.36,322.67,69.35l7.91,744.94H710V967c-13.25-60.83-61.41-71.23-119.53-67.23v777.8h-183V967c-13.24-60.83-61.41-71.23-119.53-67.23v777.8H106.3V811Z" transform="translate(-106.3 -434.53)" style="fill:#8dc63f;fill-rule:evenodd"/><path d="M3628.58,1699.35h184V1241.78h153.14v457.57h178.36V1045.68c-3.58-132.84-105.69-216.09-250.27-216.64-164.94-1.46-259,76.77-265.2,209.17v661.14Zm184-700.35c6.06-48.85,21.94-68.52,75.63-73.78,54.44,1.41,73.82,32.82,77.51,81.24v132.6H3812.55V999Z" transform="translate(-106.3 -434.53)" style="fill:#8dc63f;fill-rule:evenodd"/><path d="M1218.41,1164.29c30.68,71.74,72.42,104.72,123,106.74-78.89,58.93-164.24,94.74-253.2,117.61-55.87-3.57-109.3-17.8-161.17-32,131-25.87,228.78-89.3,291.35-192.36Z" transform="translate(-106.3 -434.53)" style="fill:#82221c;stroke:#cd8c5d;stroke-miterlimit:2.6131300000000004;stroke-width:1.71568px;fill-rule:evenodd"/><path d="M1562.06,979.39l369.78,186.76c-188.33,247.79-505.91,254.31-844.16,222.25,226.14-55.72,382.71-193.91,474.38-409Z" transform="translate(-106.3 -434.53)" style="fill:#ec2127;stroke:#cd8c5d;stroke-miterlimit:2.6131300000000004;stroke-width:1.71568px;fill-rule:evenodd"/></svg>