<svg xmlns="http://www.w3.org/2000/svg" xmlns:xlink="http://www.w3.org/1999/xlink" viewBox="0 0 224.48 205.98"><defs><linearGradient id="Turquoise" y1="120.13" x2="160.23" y2="120.13" gradientUnits="userSpaceOnUse"><stop offset="0.01" stop-color="#3eb0ca"/><stop offset="0.5" stop-color="#0099b9"/><stop offset="0.99" stop-color="#007c84"/></linearGradient><linearGradient id="Turquoise-2" x1="169.44" y1="133.98" x2="224.48" y2="133.98" xlink:href="#Turquoise"/><linearGradient id="Turquoise-3" x1="27.66" y1="9.07" x2="133.06" y2="9.07" xlink:href="#Turquoise"/></defs><title>org_default</title><g id="Layer_2" data-name="Layer 2"><g id="Layer_1-2" data-name="Layer 1"><path d="M143.61,35.45c-35.43-.22-70.91-.45-106.39.14C25.53,35.77,11.75,30.47,2.51,40-6.1,49,10.3,53.67,9.57,63.5,8,85.3,9.08,107.23,9.08,129.16q.06,20.33,0,40.74c0,36.48,0,36,37.2,35.71,12.19-.09,18.58-2.4,16.77-16-1.59-12.33-.63-20.85,17-20.62s20.75,7.39,18.67,21.62c-1.81,12.19,3.44,16.35,15.13,14.86a59.43,59.43,0,0,1,15.82,0c17,2.4,23.74-2.81,22.88-21.62-1.58-36.88-.54-73.95-.36-110.93,0-6.57-1.59-13.36,3-19.57C167,37.49,155.94,35.54,143.61,35.45Zm-108,27.19c5.81.37,10.88.86,9.61,7.71.5,7.43-2.17,10.6-9,10.92s-9.2-2.77-9.47-9.2S28.47,62.19,35.58,62.64ZM35,98.26c5.71.27,10.78.73,10.33,8.34.41,6.12-1.54,10-8.52,10.37-6.53.41-9.93-1.76-10.06-8.6C26.66,102.47,27.38,97.9,35,98.26Zm1.22,89.63c-6.66.32-9.65-2.08-9.47-8.88.18-6,1.54-10.47,8.83-9.74,6.44-.41,9.61,2.4,9.84,9.11S42.7,187.62,36.22,187.89Zm-1.77-35c-7.57-.14-7.88-5.12-7.93-10.74,0-6.71,3.08-9.7,8.93-8.79,7.29-.14,10.15,2.81,10.29,9.47C45.92,151.14,41.43,153,34.45,152.91ZM62.82,70.44C64.13,55.66,76.32,67,80.67,62c7.43,2.45,17.81-3.72,18.17,8.74C99.25,86.16,87,80.36,79.4,81S61.64,84,62.82,70.44Zm18.35,46.67c-6.43-2.08-17.49,4.85-18.35-9-.91-14.46,10.42-9.7,17.17-9.47s18-5.39,18.85,8.11S88.65,115.89,81.17,117.11Zm-.23,35.94c-6.61-2.13-17.58,4.71-18.44-9.16s9.56-10.78,16.86-10.28c7.57.49,19.76-5.35,19.85,9.74C99.25,156.94,88,151.32,80.94,153.05Zm42-90.54c7.07.13,12.15.59,12,8.24-.14,6-1.63,10.2-8.66,10.61-6.43.36-9.87-2-10.24-8.7C115.75,66.54,117.15,62.19,123,62.51Zm2.77,35.66c6.38.23,9.87,2.9,9.24,9.65-.09,6.57-3.49,9.29-9.92,9.34-7,0-8.93-3.9-9-10C115.84,100.3,119.33,97.9,125.72,98.17Zm-.1,89.81c-6.48.23-9.78-2.31-9.6-9.11.13-6.16,2.22-9.92,9.15-9.87,6.44,0,9.7,2.94,9.79,9.42C135.55,185.22,132,187.76,125.62,188Zm9.84-46c-.36,10.15-5.67,11.46-12.19,11-6.93-.45-7.89-5.3-7.75-10.92.09-6.44,3.44-9.15,9.7-9.06C132.6,133.11,136,136.69,135.46,142Z" style="fill:url(#Turquoise)"/><path d="M223.1,173.07c.59-12.82.13-25.69.13-38.51v-34c0-40.15.05-39.69-39.65-37.93-10.83.46-14.27,3.58-14.14,14.41.55,37.75.14,75.5.32,113.24.05,5.53-2.49,14.05,6.21,14.5,14.91.77,31.18,2.9,44.32-2.13C228,199.72,222.64,183.36,223.1,173.07ZM197.36,89.33c7-.09,9.15,3.67,8.38,9-.09,7.61-3.4,10.24-10,9.79S187,103.92,187,97.76C186.94,90.38,191.6,89.42,197.36,89.33Zm-.5,89.68c-6,.09-10-1.9-9.92-8.93,0-6.43,2.81-9.51,9.28-9.92,6.76-.36,9.39,2.85,9.61,9.24S203.84,179.46,196.86,179Zm-.05-34.85c-7.74-.18-10.55-4-10.15-11.42.41-7.16,5-8.24,10.74-8.42,7.25-.23,8.75,4.26,8.7,10.19C206.15,140.72,203.7,144.3,196.81,144.16Z" style="fill:url(#Turquoise-2)"/><path d="M80.23,18.13c-13.5,0-27,0-40.5,0-6.61,0-12.41-1.93-12.06-9.85C28,1.64,33.28.06,38.93.05Q80.56,0,122.17,0c5.68,0,10.88,1.78,10.89,8.47,0,7.81-5.67,9.64-12.34,9.64Q100.47,18.12,80.23,18.13Z" style="fill:url(#Turquoise-3)"/></g></g></svg>