<svg xmlns="http://www.w3.org/2000/svg" viewBox="0 0 200 200"><defs><style>.cls-1{fill:#fff;}.cls-2{fill:#ed695d;}.cls-3{fill:#336d9b;}.cls-4{fill:#345a79;}.cls-5{fill:#f9d1ce;}.cls-6{fill:#a1bbd1;}.cls-7{fill:#af564f;}.cls-8{fill:#ad5750;}.cls-9{fill:#b8ccdc;}</style></defs><title>neutron</title><g id="Layer_2" data-name="Layer 2"><g id="Layer_1-2" data-name="Layer 1"><rect class="cls-1" width="200" height="200"/><path class="cls-2" d="M85.93,111.71l40.74-18.79c2.37-.76,2.71-2.52,3.18-4.5,1.78-7.35,1.42-14.87,1.84-22.27,1-17.11,3.52-34.17,2.62-51.36a2.85,2.85,0,0,0-.48-2,2.69,2.69,0,0,1,.5-2.82c2.15,1.2,1.74,3.45,2.9,5a28.15,28.15,0,0,0,4.46,7.19c13,15.49,25.7,31.22,38.72,46.71a20.44,20.44,0,0,1,5.13,13.94q-.18,20.79,0,41.56c.06,9-1,18.16,1.93,27a4,4,0,0,1-3.58-.88c-5.54-5.35-13.51-6.52-20.54-9.05-23.66-8.53-47.22-17.26-70.87-25.8C90,114.78,87.31,114.08,85.93,111.71Z"/><path class="cls-3" d="M113.94,88.87l-42,19.69c-1.55,1.36-2.82,2.79-2.81,4.92,0,13.5-1.48,26.94-2.62,40.37-.77,9.06.69,18.4-3,27.22-3.66,1.85-4.71-1.29-6.13-2.89-7.24-8.13-13.83-16.7-20.78-25-5.9-7.08-11.7-14.23-17.64-21.28a16.81,16.81,0,0,1-4.41-11q-.09-31.68,0-63.37a8.59,8.59,0,0,1,.91-4.55c1.4-1.54,2.79-.44,4.13.07,30,11.36,60.12,22.22,90.41,32.82C111.6,86.38,114,86.4,113.94,88.87Z"/><path class="cls-4" d="M16.08,52.55c0,20.48.34,41-.08,61.44-.16,8.18,1.92,14.8,7.79,21.41,13,14.6,24.86,29.95,37.23,45a7.89,7.89,0,0,0,1.83,1.22c2.3,1.24,2.52,3.44,3.15,5.45,0,1,.69,2.46-.48,2.85-1.57.52-2.18-1.1-2.93-2-11.72-14.18-22.62-29-35.35-42.4C15.78,133.39,11.1,120.69,12.3,104.85c1.28-17-.16-34.22-.22-51.34,0-1.43-2-4.79,2.69-4C15.63,50.35,17,51.06,16.08,52.55Z"/><path class="cls-5" d="M187.46,151.41C183,145.4,184,138.6,184,132c-.11-16.78-.22-33.57-.17-50.35A18.94,18.94,0,0,0,179,68.68c-12.81-15.16-25.35-30.5-38-45.77-2-2.38-3.78-4.82-3.81-7.94q23.49,28.55,47,57.08a13.39,13.39,0,0,1,3.21,9.12c-.14,20.44.11,40.89-.16,61.34C187.22,145.49,189.6,148.43,187.46,151.41Z"/><path class="cls-6" d="M16.08,52.55c-.44-1-.87-2.06-1.31-3.08L117,86.79a4,4,0,0,1-3,2.08C94.81,82,75.62,75.16,56.55,68.11,43,63.09,28.94,59.05,16.08,52.55Z"/><path class="cls-7" d="M85.93,111.71q46.16,16.8,92.28,33.64c2.57,1,5.95,1.56,5.67,5.18Q133.6,132.38,83.34,114.2c-.3-.1-.48-.46-.74-.71C83.3,112.27,84.6,112,85.93,111.71Z"/><path class="cls-8" d="M133.83,12.83c4.45,6.82,2.11,14.24,2,21.35-.14,9.31-1.3,18.6-2.06,27.89-.73,8.95-1.57,17.89-2.24,26.84-.22,2.87-1.6,4.27-4.87,4,2.57-5.51,1.84-11.44,2.32-17.15,1.66-19.43,2.75-38.89,4.1-58.34C133.2,15.89,133.58,14.37,133.83,12.83Z"/><path class="cls-9" d="M66,187c-1.1-1.79-3-3.22-3.15-5.45q2.31-33.79,4.64-67.6c.18-2.63.24-5.41,4.45-5.43-2.15,6.74-1.13,13.73-1.91,20.59-1.6,14.25-1.83,28.62-2.71,42.93C67,177.07,66.45,182.05,66,187Z"/></g></g></svg>