<svg xmlns="http://www.w3.org/2000/svg" viewBox="0 0 121.08 99.6"><defs><style>.cls-1{fill:#fff;}</style></defs><title>active</title><g id="Layer_2" data-name="Layer 2"><g id="Layer_1-2" data-name="Layer 1"><g id="active"><path class="cls-1" d="M0,45.43C-.22,32,6.82,17,20,4.84c2.75-2.53,5.83-8,10.87-2.28,4.07,4.63,1.76,7.28-1.82,11.13C6.71,37.77,6.48,62,28.49,85.29c4,4.28,6.79,7.61,1.86,12.24s-8-.69-10.86-3.37C6.77,82.31.13,67.66,0,45.43Z"/><path class="cls-1" d="M121.08,49.52c0,18.64-7.18,34-21.18,46.2-2.64,2.29-5.57,6.76-9.67,1.2-2.81-3.82-2.52-6.27.79-10.2,24-28.63,24.18-46.81.37-73.52-4-4.52-4.16-7.51-.56-11.28,4.45-4.67,7.15.38,9.84,2.49C113.05,14.11,121,32.05,121.08,49.52Z"/><path class="cls-1" d="M24.42,50.59C23.72,40,27.71,31.54,34.64,24.46c2.09-2.14,4.55-6.5,8.47-2.19,2.34,2.56,5.07,5.76,2,9.19-10.89,12-11.32,23.92-.43,36.11,3.78,4.24.86,7.75-2.07,10.29-4.06,3.52-6.32-1.06-8.4-3.25C27.76,67.84,23.81,59.87,24.42,50.59Z"/><path class="cls-1" d="M96.79,50.09c.45,9.62-3.33,17.66-9.76,24.44-2.09,2.2-4.38,6.72-8.42,3.24-3-2.54-5.87-6-2-10.27C86.93,56,87.32,44.21,76.93,32.59c-3.82-4.27-1.71-7.55,1.14-10.4,4.83-4.82,7.09.87,9.36,3.31C93.81,32.32,97.4,40.48,96.79,50.09Z"/><path class="cls-1" d="M60.9,61.85c-7-.59-11.73-3.93-12.15-11.05-.46-7.75,3.77-12.6,11.58-12.8S72.55,42.53,72.4,50.29C72.26,57.39,67.69,61,60.9,61.85Z"/></g></g></g></svg>