<svg xmlns="http://www.w3.org/2000/svg" viewBox="0 0 76 77.86"><title>b_appointment</title><g id="Layer_2" data-name="Layer 2"><g id="Layer_1-2" data-name="Layer 1"><path d="M75.92,25.75c0,14.33.09,28.66.06,43,0,6.26-2.89,9.08-9.23,9.09q-28.76.06-57.5,0C2.9,77.82,0,75,0,68.74c0-14.33,0-28.66.06-43C2,24,4.4,24.26,6.69,24.25q31.3-.06,62.62,0C71.6,24.26,74,24,75.92,25.75Z" style="fill:#d0d9dc"/><path d="M75.92,25.75H.08c0-3.48-.11-7-.07-10.45C.1,8.82,3,6,9.44,5.85c2.16,0,4.31,0,6.47,0,1.16,1,1.13,2.19.89,3.48a5.36,5.36,0,0,1-.54,1.37c-1.48,2.49-1.15,4.79,1,6.63a4,4,0,0,0,5.44,0c2.19-1.82,2.49-4.12,1.05-6.62a6.8,6.8,0,0,1-.56-1.37c-.25-1.31-.27-2.56.89-3.5H51.91c1.16,1,1.13,2.19.89,3.48a5.36,5.36,0,0,1-.54,1.37c-1.48,2.49-1.15,4.79,1,6.63a4,4,0,0,0,5.44,0c2.19-1.82,2.49-4.12,1-6.62a6.8,6.8,0,0,1-.56-1.37c-.25-1.31-.27-2.56.89-3.5C75.2,5.69,76,6.51,76,21.77,76,23.1,76,24.42,75.92,25.75Z" style="fill:#ef4538"/><path d="M24.09,5.88l.06,4a7.09,7.09,0,0,1,.78,2.84c0,3.49-2.28,6.29-5.17,5.91C16.44,18.21,15,16,15.07,12.73a7,7,0,0,1,.78-2.84l.06-4c0-3,.48-6,4.33-5.87C23.73.16,24.06,3.09,24.09,5.88Z" style="fill:#b0bec5"/><path d="M51.85,9.89l.06-4c0-3,.48-6,4.33-5.87,3.49.15,3.82,3.08,3.85,5.87l.06,4a7.09,7.09,0,0,1,.78,2.84c0,3.49-2.28,6.29-5.17,5.91C52.44,18.21,51,16,51.07,12.73A7,7,0,0,1,51.85,9.89Z" style="fill:#b0bec5"/><path d="M22.06,36.05c5.18-1.47,5.88,1.17,6.11,5.7.28,5.3-1.65,6.18-6.46,6.29-5.19.11-5.84-1.93-5.86-6.36C15.82,36.93,17,34.69,22.06,36.05Z" style="fill:#b0bec5"/><path d="M43.77,42.16c1.69,5.94-2,5.41-6,5.83-5.91.61-5.53-2.63-5.89-6.78-.5-5.83,2.84-5.16,6.67-5.48C44,35.26,44.83,37.84,43.77,42.16Z" style="fill:#b0bec5"/><path d="M54.66,35.84c4.15-1.09,5.43,1,5.52,5.79.09,5-1.23,6.48-6.34,6.41C49,48,47.59,46.5,47.9,41.8,48.3,35.87,48,35.85,54.66,35.84Z" style="fill:#b0bec5"/><path d="M22.5,51.84c3.88-.88,5.76.55,5.68,5.67-.08,4.73-.84,6.72-6.22,6.54-4.72-.16-6.4-1.27-6.06-6.12C16.32,51.87,16,51.85,22.5,51.84Z" style="fill:#b0bec5"/><path d="M43.82,58.22C45.44,63.74,42,63.61,37.88,64c-5.72.54-5.77-2.27-6.05-6.65-.34-5.56,2.47-5.42,6.55-5.65C43.6,51.4,44.81,53.61,43.82,58.22Z" style="fill:#b0bec5"/><path d="M59.8,58.22c1.85,5.91-2,5.29-6.13,5.8-6.06.74-5.3-2.63-5.84-6.63-.84-6.29,2.88-5.26,6.75-5.67C60.05,51.15,60.69,53.83,59.8,58.22Z" style="fill:#ef4538"/><path d="M15.85,9.89c.49,3.18-.92,7.94,4.39,7.75,4.83-.18,3.43-4.71,3.91-7.75,3.35,2.79,2.12,5.76-.16,8.17a5.16,5.16,0,0,1-8,0C13.73,15.65,12.5,12.67,15.85,9.89Z" style="fill:#bb2427"/><path d="M51.85,9.89c.49,3.18-.92,7.94,4.39,7.75,4.83-.18,3.43-4.71,3.91-7.75,3.35,2.79,2.12,5.76-.16,8.17a5.16,5.16,0,0,1-8,0C49.73,15.65,48.5,12.67,51.85,9.89Z" style="fill:#bb2427"/></g></g></svg>