<svg xmlns="http://www.w3.org/2000/svg" viewBox="0 0 91.32 76.88"><defs><style>.cls-1{fill:#fff;}</style></defs><title>expected</title><g id="Layer_2" data-name="Layer 2"><g id="Layer_1-2" data-name="Layer 1"><path class="cls-1" d="M28.91,76.87c-8,0-16,0-24,0-5,0-5.78-1.46-4.22-7,2-7.16,7.29-10,12.67-12.78,6.63-3.42,7.36-5.81,4.2-13.26a64.14,64.14,0,0,1-2.77-6.64,41.41,41.41,0,0,1-.59-21.65A14.9,14.9,0,0,1,23.08,5.31C32,1.28,42.41,8.89,43.1,20c.53,8.66-.41,16.89-4.4,24.64-3.07,6-1.93,8.81,3.44,11.75,2.55,1.4,5.15,2.67,7.66,4.15a15.39,15.39,0,0,1,6.73,8.17c2.44,6.53,1.5,8.16-4.65,8.18C44.22,76.88,36.56,76.87,28.91,76.87Z"/><path class="cls-1" d="M41.27,5.71c3.89-3.48,8.5-5.87,12.56-3.39,5.51,3.36,10.94,7.47,10.44,16.85-.35,6.8-1.38,12.94-4.15,19s-1.83,8.26,3.57,11c4.39,2.23,9.08,4,11.85,9,1.36,2.48,2.55,5.34,1.48,8.1s-3.81,1.49-5.86,1.7c-1.48.15-3-.16-4.48.06-4,.6-6.64-.73-8.85-5.09-2.69-5.3-7.72-7.66-12.61-9.67-3.73-1.53-5-3.61-2.77-8A39.59,39.59,0,0,0,47.08,27C47.12,18.87,46.15,11.82,41.27,5.71Z"/><path class="cls-1" d="M61.14,1.84c7.39-4.55,16.5-.29,17.91,8.64,1,6,1.67,12.46-1.77,18.17a20.78,20.78,0,0,0-1.83,4.7c-1,3.49-.77,6.36,2.84,7.76A39.12,39.12,0,0,1,83.72,44c2.25,1.3,4.42,2.8,5.69,5.43,1.35,2.79,3.17,5.79.66,8.77-1.44,1.72-9.73.64-10.67-1.28-3-6.13-8.05-9-13.39-11.27-3.38-1.41-4.19-3.21-2.1-6.65,3.48-5.72,4-12.26,4.2-19C68.29,12.6,66,6.65,61.14,1.84Z"/></g></g></svg>