<svg xmlns="http://www.w3.org/2000/svg" viewBox="0 0 70.06 80.04"><title>b_notify</title><g id="Layer_2" data-name="Layer 2"><g id="Layer_1-2" data-name="Layer 1"><path d="M48,46.18c0,8.15,0,16.3,0,24.45C48,77.12,45.07,80,38.52,80q-14.46.07-28.93,0C3,80,.05,77.16,0,70.71Q0,40,0,9.34C.05,2.85,2.93.06,9.55,0c9,0,18,0,26.94,0C45.79,0,48,2.21,48,11.35v2.5c-1.94,1.93-4,1.65-6.19.43-1.11-6.39-5.46-7.18-11-6.82-5.81.37-11.66.17-17.49,0C9.47,7.44,7.52,8.83,7.53,13c0,16.16,0,32.32,0,48.48,0,3.6,1.61,5.06,5.16,5q11.24-.1,22.49,0c3.88,0,5.18-1.72,5.34-5.44.23-5.08-1.19-10.33,1.25-15.25C44,44.51,46.05,44.24,48,46.18Z" style="fill:#384850"/><path d="M70.06,19.78c.09-4.36-1.92-5.91-6.08-5.81-5.32.12-10.64-.07-16-.13H42l-.3-.17c-3.47-2-7.26-1.11-10.91-.94s-5.91,2.43-6.06,6.09c-.44,10.48-.39,21,0,31.47.13,4,1.7,4.8,5.15,2.73,3.84-2.29,7.66-4.57,11.65-6.58l.51-.26h6c5.32-.06,10.64-.25,16-.13,4.16.1,6.17-1.46,6.08-5.81Q69.83,30,70.06,19.78ZM40,37.22c2.08-2.17,2.48-5,2-8-.71-4.28,2.79-6.1,4.93-8.59,1.18-1.37,6.22,2.91,6.94,6a10.52,10.52,0,0,1,.15,3c-.16,2.8,0,5.5,2.27,7.67C50.66,39.3,45.43,39.59,40,37.22Z" style="fill:#ef4538"/><path d="M42,13.85c-3.48.05-7,.19-10.43.14-3.66-.05-5.6,1.45-5.59,5.28,0,11.24,0,22.49,0,33.92,6-1.33,9.19-8.31,16-7,0,5.82-.13,11.64,0,17.45.09,3.13-.77,4.51-4.18,4.45-9.3-.18-18.62-.16-27.92,0-3.1,0-4-1.13-4-4.1.09-18,.12-35.91,0-53.87,0-3.45,1.41-4.19,4.48-4.13,8,.14,16,0,23.94,0C43,6,42,5.24,42,13.85Z" style="fill:#beddf4"/><path d="M24.36,76.39c-2.26-1.17-5.91,1.14-6.06-2.15-.17-4.17,3.75-1.92,5.75-2.07s5.52-1.6,5.69,1.62C30,78.23,25.71,74.53,24.36,76.39Z" style="fill:#78909c"/></g></g></svg>