<svg xmlns="http://www.w3.org/2000/svg" viewBox="0 0 100 69.61"><defs><style>.cls-1{fill:#1b75bc;}</style></defs><title>tick</title><g id="Layer_2" data-name="Layer 2"><g id="Layer_1-2" data-name="Layer 1"><path class="cls-1" d="M89.62,18c-18.22,10.3-31.92,25.4-42.68,43-6.43,10.49-11.53,12.13-19,1.35A84.13,84.13,0,0,0,5.08,40C.41,36.87-1.65,32.39,1.54,27.49c3.48-5.34,8.4-4,12.62-.63,7.58,6,15,12.27,22.9,18.82C50.89,29.36,63.38,13,82.36,3.83c5.23-2.51,12.39-7.56,16.51.76S95.08,14.88,89.62,18Z"/><path class="cls-1" d="M89.62,18c-18.22,10.3-31.92,25.4-42.68,43-6.43,10.49-11.53,12.13-19,1.35A84.13,84.13,0,0,0,5.08,40C.41,36.87-1.65,32.39,1.54,27.49c3.48-5.34,8.4-4,12.62-.63,7.58,6,15,12.27,22.9,18.82C50.89,29.36,63.38,13,82.36,3.83c5.23-2.51,12.39-7.56,16.51.76S95.08,14.88,89.62,18Z"/></g></g></svg>