<svg xmlns="http://www.w3.org/2000/svg" viewBox="0 0 86 97.21"><title>Asset 2</title><g id="Layer_2" data-name="Layer 2"><g id="Layer_1-2" data-name="Layer 1"><ellipse cx="43" cy="48.6" rx="43" ry="48.6" style="fill:#324a5e"/><path d="M78.75,41.79V51.9A1.06,1.06,0,0,1,77.54,53,1.14,1.14,0,0,1,76.66,52l-.89-10.33a.62.62,0,0,0-.6-.61.65.65,0,0,0-.61.69V72.18a1.77,1.77,0,0,1-1.29,1.76,1.52,1.52,0,0,1-1.63-1.45l-1.42-16a.71.71,0,0,0-.68-.69.65.65,0,0,0-.6.69L67.85,72.33a1.57,1.57,0,0,1-1.49,1.53h-.27a1.61,1.61,0,0,1-1.49-1.68V41.72A.65.65,0,0,0,64,41a.53.53,0,0,0-.54.46.78.78,0,0,1,.68-.77.72.72,0,0,1,.67.77L65.89,54A1.32,1.32,0,0,0,67,55.26a1.3,1.3,0,0,0,1.49-1.37V41.72a13.35,13.35,0,0,0-3.25-8.88,7.93,7.93,0,0,1,4.2-1.38C74.49,31.31,78.75,36,78.75,41.79Z" style="fill:#2b3b4e"/><ellipse cx="69.61" cy="25.11" rx="4.27" ry="4.82" style="fill:#2b3b4e"/><path d="M21.4,41.49c0-.16.07-.23.07-.31-.07.08-.07.15-.07.31l.07,30.38a1.77,1.77,0,0,1-1.29,1.76,1.51,1.51,0,0,1-1.63-1.45l-1.42-16a.71.71,0,0,0-.67-.69.65.65,0,0,0-.61.69L14.69,72.1a1.56,1.56,0,0,1-1.49,1.53h-.27A1.61,1.61,0,0,1,11.44,72V41.41a.65.65,0,0,0-.61-.69.66.66,0,0,0-.6.61L9.34,51.67a1.08,1.08,0,0,1-1,1.07,1.08,1.08,0,0,1-1-1.15V41.72c0-5.67,3.93-10.41,8.87-10.57a8.49,8.49,0,0,1,5.08,1.53,14,14,0,0,0-3.38,9.19V53.81a1.38,1.38,0,0,0,1.28,1.45h0A1.23,1.23,0,0,0,20.38,54Z" style="fill:#2b3b4e"/><path d="M22.75,41.56v2.22l-.2-2.37a.62.62,0,0,0-.47-.61A.68.68,0,0,1,22.75,41.56Z" style="fill:#2b3b4e"/><ellipse cx="16.39" cy="24.88" rx="4.27" ry="4.82" style="fill:#2b3b4e"/><path d="M50.45,40.72a1,1,0,0,1,.41.15c-.07,0-.21-.07-.28-.07a.72.72,0,0,0-.67.76L49.7,44V41.56A.8.8,0,0,1,50.45,40.72Z" style="fill:#ff7058"/><path d="M68.39,41.72V53.89a1.3,1.3,0,0,1-1.49,1.37A1.39,1.39,0,0,1,65.82,54l-1-12.47a.77.77,0,0,0-.67-.77.8.8,0,0,0-.75.84V78.3a2,2,0,0,1-1.55,2.07,1.83,1.83,0,0,1-2-1.76L58.17,59.32c-.07-.46-.34-.77-.75-.77a.81.81,0,0,0-.74.85L55.19,78.61a1.94,1.94,0,0,1-1.76,1.84h-.34a1.92,1.92,0,0,1-1.76-2v-36l1,12.48a1.66,1.66,0,0,0,1.16,1.45,1.4,1.4,0,0,0,1.55-1.53V41.72A14.33,14.33,0,0,0,51,31.54a10.11,10.11,0,0,1,6-2.3C63.31,29,68.39,34.67,68.39,41.72Z" style="fill:#ff7058"/><ellipse cx="57.36" cy="21.51" rx="5.15" ry="5.82" style="fill:#ff7058"/><path d="M31.15,41.94V54.88a1.46,1.46,0,0,0,1.35,1.53h0A1.46,1.46,0,0,0,33.86,55l1-12.63V78.3a2,2,0,0,1-1.55,2.07,1.87,1.87,0,0,1-2-1.76L29.59,59.32a.83.83,0,0,0-.74-.77.74.74,0,0,0-.75.77L26.68,78.61a1.94,1.94,0,0,1-1.76,1.84h-.34a1.92,1.92,0,0,1-1.76-2V41.56a.8.8,0,0,0-.74-.84.73.73,0,0,0-.68.77L20.31,54a1.3,1.3,0,0,1-1.21,1.3h0a1.37,1.37,0,0,1-1.29-1.45V41.94c0-6.81,4.74-12.55,10.7-12.7a10,10,0,0,1,6.7,2.3A14.78,14.78,0,0,0,31.15,41.94Z" style="fill:#84dbff"/><path d="M22.08,40.8a.68.68,0,0,0-.61.38.49.49,0,0,1,.61-.38Z" style="fill:#84dbff"/><path d="M36.5,41.56V44l-.2-2.52a.78.78,0,0,0-.68-.77.36.36,0,0,0-.27.08.84.84,0,0,1,.4-.16A1,1,0,0,1,36.5,41.56Z" style="fill:#84dbff"/><ellipse cx="28.85" cy="21.51" rx="5.15" ry="5.82" style="fill:#84dbff"/><path d="M42.8,28.17C36.3,28.4,31.15,34.6,31.15,42V55a1.46,1.46,0,0,0,1.35,1.53h0a1.46,1.46,0,0,0,1.36-1.38L35,41.56c.07-.46.34-.76.74-.76a.8.8,0,0,1,.75.84v40a2,2,0,0,0,1.9,2.14h.4a2,2,0,0,0,1.9-2l1.56-21a.9.9,0,0,1,.81-.84.86.86,0,0,1,.81.84l1.9,21.05a2,2,0,0,0,2.1,1.91,2.18,2.18,0,0,0,1.69-2.29v-40a.8.8,0,0,1,.74-.84.74.74,0,0,1,.75.77L52.21,55a1.67,1.67,0,0,0,1.15,1.46A1.41,1.41,0,0,0,54.92,55V41.72C55.12,34.06,49.57,27.94,42.8,28.17Z" style="fill:#fff"/><path d="M35.35,40.8a.81.81,0,0,0-.34.69l-.14.91v-.84A.93.93,0,0,1,35.35,40.8Z" style="fill:#fff"/><ellipse cx="43.14" cy="19.82" rx="5.62" ry="6.35" style="fill:#fff"/></g></g></svg>