<svg xmlns="http://www.w3.org/2000/svg" viewBox="0 0 77.76 105.46"><defs><style>.cls-1{fill:#fff;}.cls-2{fill:none;stroke:#fff;stroke-miterlimit:10;stroke-width:5px;}</style></defs><title>walk_in</title><g id="Layer_2" data-name="Layer 2"><g id="Layer_1-2" data-name="Layer 1"><g id="walk_in"><path class="cls-1" d="M21.59,46.59c-6.26,2-9.87,5.22-11.48,10.63a28.65,28.65,0,0,1-2.65,5.87A3.6,3.6,0,0,1,2.83,65C.55,64.17-.59,62.2.31,60.26,3.5,53.41,4,44.92,12.17,41c5.43-2.59,9.47-7.83,16.34-7.75,7.29.09,10.37,3.59,8.66,10.75-1.35,5.65-2.49,11.37-4.25,16.89a8.39,8.39,0,0,0,1.37,8.36c6.29,8.14,6.87,18.18,9.25,27.61.71,2.82-.65,5-3.46,5.71-3.34.88-5.52-.87-6.45-4a40.3,40.3,0,0,1-1.36-7.33,25.56,25.56,0,0,0-9.94-18.2c-4.48-3.5-5-7.84-3.64-12.94C19.8,55.87,20.56,51.48,21.59,46.59Z"/><path class="cls-1" d="M16.69,73.64C25.27,80,27.43,81.3,20.48,91.07c-2.31,3.25-4.79,6.37-7.27,9.49-2.08,2.61-4.74,3.2-7.38,1.09S3.59,97,5.31,94.54c1.33-1.91,2.8-3.71,4.23-5.54C14.77,82.3,14.77,82.3,16.69,73.64Z"/><path class="cls-1" d="M34.76,11.69a8.92,8.92,0,0,1,9,8.73,9.24,9.24,0,0,1-9.24,9.14,9,9,0,0,1-8.68-9.1A8.67,8.67,0,0,1,34.76,11.69Z"/><path class="cls-1" d="M42.13,40.65c2.74,7.46,8.19,9.18,13.89,10.6,2.61.65,4.08,2.43,3.24,5.18s-2.94,3.33-5.56,2.44c-1.09-.37-2.22-.66-3.34-.93C38.54,55.08,37.89,53,42.13,40.65Z"/><polyline class="cls-2" points="75.25 105.46 75.25 2.5 18.2 2.5"/></g></g></g></svg>