<svg xmlns="http://www.w3.org/2000/svg" viewBox="0 0 78.26 105.46"><defs><style>.cls-1{fill:#fff;}.cls-1,.cls-2{stroke:#fff;stroke-miterlimit:10;}.cls-2{fill:none;stroke-width:5px;}</style></defs><title>walk_out</title><g id="Layer_2" data-name="Layer 2"><g id="Layer_1-2" data-name="Layer 1"><g id="walk_out"><path class="cls-1" d="M38.41,46.59c6.26,2,9.87,5.22,11.48,10.63a28.65,28.65,0,0,0,2.65,5.87A3.6,3.6,0,0,0,57.17,65c2.27-.8,3.42-2.77,2.52-4.71C56.5,53.41,56,44.92,47.83,41c-5.43-2.59-9.48-7.83-16.35-7.75-7.28.09-10.36,3.59-8.65,10.75,1.34,5.65,2.49,11.37,4.25,16.89a8.4,8.4,0,0,1-1.38,8.36c-6.29,8.14-6.86,18.18-9.24,27.61-.72,2.82.65,5,3.45,5.71,3.35.88,5.53-.87,6.46-4a40.28,40.28,0,0,0,1.35-7.33,25.61,25.61,0,0,1,10-18.2c4.48-3.5,4.95-7.84,3.64-12.94C40.2,55.87,39.44,51.48,38.41,46.59Z"/><path class="cls-1" d="M43.3,73.64C34.72,80,32.56,81.3,39.52,91.07c2.3,3.25,4.78,6.37,7.26,9.49,2.08,2.61,4.74,3.2,7.38,1.09s2.24-4.64.52-7.11c-1.32-1.91-2.79-3.71-4.22-5.54C45.23,82.3,45.23,82.3,43.3,73.64Z"/><path class="cls-1" d="M25.23,11.69a8.91,8.91,0,0,0-9,8.73,9.23,9.23,0,0,0,9.24,9.14,9,9,0,0,0,8.67-9.1A8.67,8.67,0,0,0,25.23,11.69Z"/><path class="cls-1" d="M17.87,40.65c-2.75,7.46-8.2,9.18-13.9,10.6C1.36,51.9-.1,53.68.74,56.43s2.93,3.33,5.55,2.44c1.1-.37,2.22-.66,3.35-.93C21.45,55.08,22.1,53,17.87,40.65Z"/><polyline class="cls-2" points="75.75 105.46 75.75 2.5 18.7 2.5"/></g></g></g></svg>